<?xml version="1.0" encoding="utf-8"?>
<!-- Generator: Adobe Illustrator 26.3.1, SVG Export Plug-In . SVG Version: 6.00 Build 0)  -->
<svg version="1.1" id="Layer_1" xmlns="http://www.w3.org/2000/svg" xmlns:xlink="http://www.w3.org/1999/xlink" x="0px" y="0px"
	 viewBox="0 0 41.7 41.7" style="enable-background:new 0 0 41.7 41.7;" xml:space="preserve">
<style type="text/css">
	.st0{fill:#FFFFFF;}
</style>
<g>
	<path class="st0" d="M20.8,2c5.1,0,9.8,2,13.4,5.6c3.5,3.5,5.4,8.2,5.4,13.2c0,10.4-8.4,18.8-18.8,18.8S2,31.2,2,20.8
		C2,10.4,10.4,2,20.8,2 M20.8,0C9.3,0,0,9.3,0,20.8s9.3,20.8,20.8,20.8s20.8-9.3,20.8-20.8C41.7,9.3,32.3,0,20.8,0L20.8,0z"/>
</g>
<path class="st0" d="M25.7,17.5h-4c-0.2,0-0.2,0.1-0.2-0.2c0-0.3,0-0.5,0-0.8c0-0.9,0-1.7,0-2.6c0-0.5,0.4-1,1-1.1
	c0.2-0.1,0.5-0.1,0.7-0.1c0.7,0,1.5,0,2.2,0h0.2c0,0,0.1-0.1,0.1-0.2c0-0.2,0-0.4,0-0.6c0-0.4,0-0.8,0-1.2V9c0-0.1,0.1-0.2-0.2-0.2
	s-0.6-0.1-0.9-0.1h-2.2c-0.8,0-1.6,0.1-2.3,0.4c-1.3,0.5-2.4,1.5-2.9,2.9c-0.2,0.6-0.3,1.3-0.3,2v3.2c0,0.2,0,0.2-0.2,0.2h-2.5
	c-0.3,0-0.3,0-0.3,0.3v3.6c0,0.3,0.1,0.3,0.3,0.3c0.8,0,1.6,0,2.4,0c0.4,0,0.4,0,0.4,0.4v10.7c0,0.3,0,0.3,0.3,0.3H21
	c0.3,0,0.3,0,0.3-0.3V21.9c0-0.3,0-0.3,0.3-0.3h3.8c0.3,0,0.3,0,0.3-0.3c0-0.3,0-0.7,0-1l0.1-2.6C25.8,17.5,25.8,17.5,25.7,17.5z"/>
</svg>
