<?xml version="1.0" encoding="utf-8"?>
<!-- Generator: Adobe Illustrator 25.2.3, SVG Export Plug-In . SVG Version: 6.00 Build 0)  -->
<svg version="1.1" id="Layer_1" xmlns="http://www.w3.org/2000/svg" xmlns:xlink="http://www.w3.org/1999/xlink" x="0px" y="0px"
	 width="41.7px" height="41.7px" viewBox="0 0 41.7 41.7" style="enable-background:new 0 0 41.7 41.7;" xml:space="preserve">
<style type="text/css">
	.st0{fill:#159CBF;}
	.st1{fill-rule:evenodd;clip-rule:evenodd;fill:#FFFFFF;}
</style>
<circle class="st0" cx="20.8" cy="20.8" r="15.8"/>
<path class="st1" d="M20.8,0C9.3,0,0,9.3,0,20.8s9.3,20.8,20.8,20.8s20.8-9.3,20.8-20.8l0,0C41.7,9.3,32.3,0,20.8,0z M26.8,17.7
	l-0.1,2.6c0,0.3,0,0.7,0,1s0,0.3-0.3,0.3h-3.8c-0.3,0-0.3,0-0.3,0.3v10.8c0,0.3,0,0.3-0.3,0.3h-3.7C18,33,18,33,18,32.7V22
	c0-0.4,0-0.4-0.4-0.4c-0.8,0-1.6,0-2.4,0c-0.2,0-0.3,0-0.3-0.3v-3.6c0-0.3,0-0.3,0.3-0.3h2.5c0.2,0,0.2,0,0.2-0.2V14
	c0-0.7,0.1-1.4,0.3-2c0.5-1.4,1.6-2.4,2.9-2.9c0.7-0.3,1.5-0.4,2.3-0.4h2.2c0.3,0,0.6,0.1,0.9,0.1s0.2,0.1,0.2,0.2v1.7
	c0,0.4,0,0.8,0,1.2c0,0.2,0,0.4,0,0.6c0,0.1-0.1,0.2-0.1,0.2l0,0h-0.2c-0.7,0-1.5,0-2.2,0c-0.2,0-0.5,0-0.7,0.1
	c-0.6,0.1-1,0.6-1,1.1c0,0.9,0,1.7,0,2.6c0,0.3,0,0.5,0,0.8s0,0.2,0.2,0.2h4C26.8,17.5,26.8,17.5,26.8,17.7z"/>
</svg>
