<svg id="Layer_1" data-name="Layer 1" xmlns="http://www.w3.org/2000/svg" width="246.56" height="212.26" viewBox="0 0 246.56 212.26"><defs><style>.cls-1{fill:#fff;}</style></defs><title>MidBossLogoCastle</title><path class="cls-1" d="M85.61,172.79l-.16.16c-7.38,7.54-15.26,15.17-23.49,22.74,5.71-7.32,11.88-14.69,18.41-22l.82-.92H74l-44.56,39h8.47l19.37-18.3c-5,5.81-9.78,11.64-14.23,17.41l-.68.89H51l.16-.14c6.5-6,12.81-12,18.83-17.93L55,211.82h8.81l28.88-39Z"/><polygon class="cls-1" points="94.33 172.79 68.16 211.82 77.28 211.82 99.72 172.79 94.33 172.79"/><path class="cls-1" d="M112.23,174.4a4.76,4.76,0,0,0-3.88-1.61h-6.9l-19.73,39H94.91c8,0,12.87-3.39,14.12-9.81l4.06-19.19C113.86,178.86,113.57,176,112.23,174.4ZM96.7,205.3H93.44l10.64-26h2.26c.65,0,.82.23.87.3.18.24.39.89-.15,2.67L101,202C100.31,204.29,99,205.3,96.7,205.3Z"/><path class="cls-1" d="M134.27,199.1c-.59-3.95-2.23-6.67-4.9-8.11,2-1.44,2.63-3.9,2.11-7.65L131.3,182c-.94-6.27-3.44-9.19-7.87-9.19H116.7l-5.89,39h12.86c4.62,0,7.86-1.06,9.64-3.15a7.66,7.66,0,0,0,1.41-6.47Zm-13.58-4.35h2.21c2.27,0,3.45.64,3.64,4.08l.16,3.31a2.52,2.52,0,0,1-3,3.16h-3.57Zm4-7.16a2.68,2.68,0,0,1-2,.64h-1.61l.49-8.92h1.73c.94,0,1.84.41,2,3.37l.09,2.12A3.83,3.83,0,0,1,124.67,187.59Z"/><path class="cls-1" d="M149.64,182.2c-3.2-6.35-7.23-9.85-11.35-9.85a4.76,4.76,0,0,0-3.83,1.63c-1.43,1.71-1.79,4.58-1.09,8.57l3.82,19.71c1.12,6.35,6.32,10,14.26,10,4.3,0,7.11-1,8.36-3.06,1.11-1.8.9-4.25-.62-7.27Zm2,22.9c-.29.42-1,.64-2,.64a4.08,4.08,0,0,1-4.34-3.35l-5.94-20.48c-.51-1.79-.27-2.47-.09-2.72.06-.07.24-.31.88-.31,1.34,0,2.43,1.11,3.33,3.39l8,20.48C151.73,203.51,152,204.53,151.62,205.1Z"/><path class="cls-1" d="M167.84,190.34c-4.65-2.61-8.66-4.86-10.85-8.57-1.32-2.1-1.14-2.65-1.09-2.74s.27-.15.58-.15c1.35,0,2.85,1.15,4.57,3.51l1.31,1.8h6.3l-1.72-2.1c-5.3-6.37-10.23-9.74-14.25-9.74a3.43,3.43,0,0,0-3.18,1.47c-1,1.68-.44,4.66,1.74,8.87,3.14,6.33,8.72,9.48,14.11,12.53,4,2.26,7.76,4.39,10.24,7.65,1.15,1.59,1.06,2.18,1,2.36s-.75.45-1.65.45c-2.38,0-4.16-1.09-5.6-3.42l-1.85-3h-7.54l1.67,3.13c3.26,6.34,9.37,9.84,17.21,9.84,3.94,0,6.35-.89,7.18-2.65s-.12-4.46-2.9-7.8C178.31,196.21,172.75,193.09,167.84,190.34Z"/><path class="cls-1" d="M206.5,201.75c-6.57-5.58-13.13-8.69-18.91-11.43-5.53-2.62-10.3-4.88-13.73-8.63-1.84-1.94-2-2.6-2-2.76a1.05,1.05,0,0,1,.38-.05c1.39,0,3.31,1.17,5.86,3.58l1.81,1.73h6.54L183.94,182c-5.11-4.41-12.25-9.68-17.28-9.68-1.43,0-2.35.44-2.75,1.3-.78,1.66.69,4.66,4.46,9.14,5.16,6.27,11.73,9.41,18.08,12.45,4.75,2.27,9.23,4.41,12.81,7.71,2,1.89,1.81,2.43,1.8,2.45s-.34.28-1.35.28c-2.39,0-4.64-1.15-6.87-3.51l-2.73-2.88h-7.75l2.78,3.23a26.15,26.15,0,0,0,20.24,9.74c3.69,0,5.77-.76,6.34-2.31C212.42,208.06,210.72,205.39,206.5,201.75Z"/><path class="cls-1" d="M217.13,67.43c-2.21,9.09-11.84,18.78-22.33,25.86.28-.9.55-1.8.82-2.7q6.18-20.22,12.53-40.46c4.77-.61,7-2,7.06-2.09q2.88-8.59,5.8-17.21,1.19-3.52,2.39-7l2.4-7q-6.06-3-12.67-5.47Q212,14.93,211,18.57q-3.24-1.2-6.59-2.3,1-3.7,2-7.41c-4.56-1.54-9.29-2.93-14.14-4.19-.59,2.54-1.16,5.07-1.74,7.6q-3.56-.9-7.2-1.69c.51-2.56,1-5.12,1.55-7.68C179.9,1.79,174.8.82,169.62,0l-1.2,7.81c-.39,2.61-.79,5.21-1.18,7.82q-1.44,9.56-2.87,19.1c0,.09,1.67,2.7,6.08,5.78-.72,4.19-1.46,8.37-2.18,12.55a288.53,288.53,0,0,0-35-3.27q-.22,5.91-.44,11.81c-6.37-.19-12.76-.19-19.12,0l-.45-11.81a288.88,288.88,0,0,0-35,3.27c-.71-4.19-1.44-8.38-2.16-12.57,4.4-3.07,6.11-5.67,6.07-5.76q-1.43-9.54-2.86-19.1c-.4-2.61-.79-5.21-1.19-7.82S77.34,2.6,76.94,0C71.76.82,66.66,1.79,61.68,2.9l1.56,7.68c-2.43.53-4.84,1.09-7.21,1.69q-.86-3.79-1.73-7.6c-4.85,1.26-9.58,2.65-14.15,4.19.69,2.47,1.36,4.94,2,7.41q-3.34,1.1-6.59,2.3c-.72-2.43-1.45-4.86-2.17-7.29q-6.62,2.52-12.67,5.47l2.4,7c.8,2.34,1.59,4.69,2.39,7q2.91,8.61,5.8,17.21c.1.07,2.27,1.52,7.08,2.14Q44,68.11,49.53,86c.75,2.42,1.48,4.85,2.22,7.27C41.26,86.21,31.63,76.52,29.42,67.43,20,73.83,2.15,70.54,0,97.57c4.24-7.24,11-5.92,18.54,8.12,1.85-8.13,10.76-7.15,19,2.4C36.43,104,36.15,96,53.29,98.37q10.77,35.49,21.07,71H105c-1.25-10.68.68-19.44,4.33-19.53s6.94,8.69,7.3,19.53h13.29c.36-10.84,3.64-19.6,7.3-19.53s5.58,8.85,4.33,19.53H172.2q10.28-35.47,21.07-71C210.41,96,210.13,104,209,108.09c8.22-9.55,17.13-10.53,19-2.4,7.51-14,14.31-15.36,18.55-8.12C244.41,70.54,226.56,73.83,217.13,67.43ZM80.2,103.93C69.85,93.07,64.48,74.44,71.63,60.59c-.12.1,4.12,10.17,18,24.43,13.53,14.46,20.7,16.5,20.85,16.44C102.6,114.19,90.7,114.81,80.2,103.93Zm86.16,0c-10.5,10.88-22.4,10.26-30.23-2.47.14.06,7.32-2,20.85-16.44,13.83-14.26,18.07-24.33,18-24.43C182.07,74.44,176.71,93.07,166.36,103.93Z"/></svg>