<?xml version="1.0" encoding="utf-8"?>
<!-- Generator: Adobe Illustrator 26.3.1, SVG Export Plug-In . SVG Version: 6.00 Build 0)  -->
<svg version="1.1" id="Layer_1" xmlns="http://www.w3.org/2000/svg" xmlns:xlink="http://www.w3.org/1999/xlink" x="0px" y="0px"
	 viewBox="0 0 41.7 41.7" style="enable-background:new 0 0 41.7 41.7;" xml:space="preserve">
<style type="text/css">
	.st0{fill:#FFFFFF;}
</style>
<g>
	<polygon class="st0" points="18,20.6 14.1,26.7 15.1,20.6 12.9,20.6 10.4,34.7 12.7,34.7 13.4,30.4 14.3,29.1 15.5,34.7 17.7,34.7 
		16,26.9 20.2,20.6 	"/>
	<path class="st0" d="M25.5,15.6h-1.6l-0.1,0.7c-0.3,1.7,0.5,2.7,2.1,2.7c1.6,0.1,2.9-1.1,3-2.7c0.5-3.1-2.7-3.5-2.3-5.7
		c0.1-0.7,0.5-1,1-1s0.7,0.3,0.7,1L28.1,11h1.6l0.1-0.4c0.3-1.7-0.4-2.7-2.1-2.7c-1.6-0.1-2.9,1.1-3,2.7c-0.5,3.1,2.7,3.5,2.3,5.7
		c-0.1,0.7-0.6,1-1,1s-0.7-0.3-0.7-1L25.5,15.6z"/>
	<path class="st0" d="M33.9,11h1.6l0.1-0.4c0.3-1.7-0.4-2.7-2.1-2.7c-1.6-0.1-2.9,1.1-3,2.7c-0.5,3.1,2.7,3.5,2.3,5.7
		c-0.1,0.7-0.6,1-1,1s-0.7-0.3-0.7-1l0.1-0.7h-1.6l-0.1,0.7C29.3,18,30,19,31.7,19c1.6,0.1,2.9-1.1,3-2.7c0.5-3.1-2.7-3.5-2.3-5.7
		c0.1-0.7,0.5-1,1-1c0.6,0,0.8,0.3,0.7,1L33.9,11z"/>
	<polygon class="st0" points="26.4,34.7 28.6,22.6 30.8,22.6 31.2,20.6 24.4,20.6 24,22.6 26.3,22.6 24.2,34.7 	"/>
	<polygon class="st0" points="18,18.8 22.6,18.8 22.9,17.3 20,17.3 20.5,14.1 22.9,14.1 23.1,12.6 20.8,12.6 21.4,9.5 24.3,9.5 
		24.5,8 19.9,8 	"/>
	<path class="st0" d="M18.2,11.4l0.1-0.8C18.6,8.9,18,8,16.2,8h-2.5l-1.9,10.8h1.7l0.7-4.3h0.6c0.7,0,1,0.4,0.8,1.4l-0.3,1.7
		c-0.1,0.5-0.1,0.8,0,1.3h1.8c-0.1-0.5-0.1-0.8,0-1.3l0.3-1.7c0.2-1.2,0-2-0.7-2.3C17.5,13.2,18.1,12.3,18.2,11.4z M16.6,10.7
		l-0.2,1c-0.2,0.8-0.6,1.1-1.2,1.1h-0.7l0.6-3.3h0.8C16.5,9.6,16.7,10,16.6,10.7z"/>
	<path class="st0" d="M7.6,18.8l0.7-4h0.8c0.1,0,0.1,0,0.1,0c1.5,0,2.8-1.1,2.9-2.7l0.3-1.4C12.8,9,12.1,8,10.4,8H7.9L6,18.8H7.6z
		 M9.3,9.6h0.8c0.5,0,0.7,0.2,0.7,1l-0.3,1.6c-0.2,0.7-0.5,1-1,1H8.6L9.3,9.6z"/>
	<polygon class="st0" points="23.4,20.6 21.2,20.6 18.7,34.7 21,34.7 	"/>
</g>
<g>
	<path class="st0" d="M20.8,2c5.1,0,9.8,2,13.4,5.6c3.5,3.5,5.4,8.2,5.4,13.2c0,10.4-8.4,18.8-18.8,18.8S2,31.2,2,20.8
		C2,10.4,10.4,2,20.8,2 M20.8,0C9.3,0,0,9.3,0,20.8s9.3,20.8,20.8,20.8s20.8-9.3,20.8-20.8C41.7,9.3,32.3,0,20.8,0L20.8,0z"/>
</g>
</svg>
