<?xml version="1.0" encoding="utf-8"?>
<!-- Generator: Adobe Illustrator 22.1.0, SVG Export Plug-In . SVG Version: 6.00 Build 0)  -->
<svg version="1.1" id="Layer_1" xmlns="http://www.w3.org/2000/svg" xmlns:xlink="http://www.w3.org/1999/xlink" x="0px" y="0px"
	 viewBox="0 0 41.7 41.7" style="enable-background:new 0 0 41.7 41.7;" xml:space="preserve">
<style type="text/css">
	.st0{fill-rule:evenodd;clip-rule:evenodd;fill:#F9F7F5;}
	.st1{fill-rule:evenodd;clip-rule:evenodd;fill:#FFFFFF;}
</style>
<title>PressKit</title>
<path class="st0" d="M2084.9,1188.3c0-1,0-2.1,0-3.1c1.1,1.1,2.1,2.1,3.2,3.2c0,0-0.1,0-0.1,0c-1,0-1.9,0-2.9,0
	C2084.9,1188.4,2084.9,1188.4,2084.9,1188.3z M2101.4,1197.6c0,11.5-9.3,20.8-20.8,20.8c-11.5,0-20.8-9.3-20.8-20.8
	c0-11.5,9.3-20.8,20.8-20.8C2092.1,1176.8,2101.4,1186.1,2101.4,1197.6z M2097.7,1204.8c0-0.5,0-1.1,0-1.6c-0.1-0.2-0.1-0.4-0.1-0.6
	c-0.2-1.5-0.9-2.8-1.8-4c-1.1-1.3-2.4-2.1-4-2.6c-0.4-0.1-0.8-0.2-1.2-0.3c-0.2,0-0.3-0.1-0.3-0.3c0-2.4,0-4.9,0-7.3
	c0-0.2-0.1-0.3-0.2-0.5c-0.8-0.8-1.7-1.7-2.5-2.5c-0.7-0.7-1.5-1.5-2.2-2.2c-0.1-0.1-0.2-0.1-0.2-0.2c-5.6,0-11.2,0-16.7,0
	c-0.2,0-0.2,0-0.2,0.2c0,9.7,0,19.3,0,29c0,0.2,0,0.2,0.2,0.2c7.3,0,14.6,0,21.8,0c0.1-0.1,0.3-0.1,0.5-0.1c1.5-0.3,2.8-0.9,3.9-1.8
	c1.1-0.9,1.8-2,2.4-3.3c0.2-0.6,0.4-1.2,0.5-1.9C2097.7,1205.1,2097.7,1204.9,2097.7,1204.8z M2088.6,1190.5c0,1.7,0,3.4,0,5
	c0,0.2,0,0.3-0.3,0.3c-1.5,0.2-2.8,0.8-4,1.7c-1.2,0.9-2,2.1-2.5,3.5c-0.1,0.2-0.1,0.2-0.3,0.2c-2.5,0-5,0-7.5,0
	c-0.5,0-0.9,0.1-1.3,0.4c-0.5,0.3-0.7,0.7-0.7,1.2c0,0.4,0,0.8,0,1.2c0,1.5,0,2.9,0,4.4c0,0.2,0.1,0.2,0.2,0.2c3.4,0,6.7,0,10.1,0
	c0.2,0,0.3,0.1,0.4,0.2c0.4,0.5,0.8,1,1.2,1.4c0.1,0.1,0.2,0.1,0.3,0.2c-0.2,0-0.2,0-0.3,0c-4.5,0-9.1,0-13.6,0
	c-0.2,0-0.2,0-0.2-0.2c0-8.4,0-16.9,0-25.3c0-0.2,0-0.2,0.2-0.2c4.1,0,8.3,0,12.4,0c0.2,0,0.2,0,0.2,0.2c0,1.7,0,3.4,0,5
	c0,0.2,0.1,0.2,0.3,0.2c1.7,0,3.3,0,5,0C2088.5,1190.2,2088.6,1190.3,2088.6,1190.5z M2083,1195.8c0-2-1.6-3.7-3.7-3.7
	c-2,0-3.7,1.6-3.6,3.7c0,2,1.6,3.7,3.7,3.7C2081.4,1199.4,2083,1197.8,2083,1195.8z M2095.9,1204.1c0,3.5-2.9,6.4-6.4,6.4
	c-3.5,0-6.4-2.9-6.4-6.5c0-3.5,2.9-6.4,6.5-6.4C2093,1197.6,2095.9,1200.5,2095.9,1204.1z M2093.1,1203.7c0-0.2,0.1-0.4,0-0.5
	c-0.1-0.1-0.3,0-0.5,0c-0.2,0-0.3,0-0.2-0.2c0-0.6-0.1-1.3-0.3-1.9c-0.2-0.5-0.5-0.9-0.9-1.1c-0.6-0.4-1.3-0.5-2-0.4
	c-0.9,0.1-1.6,0.5-2.1,1.2c-0.4,0.6-0.5,1.2-0.5,1.9c0,0.2,0.1,0.4,0,0.5c-0.1,0.1-0.3,0-0.5,0c-0.2,0-0.2,0-0.2,0.2
	c0,1.4,0,2.8,0,4.2c0,0.2,0,0.2,0.2,0.2c1.2,0,2.3,0,3.5,0c1.2,0,2.3,0,3.5,0c0.2,0,0.2,0,0.2-0.2
	C2093.1,1206.2,2093.1,1205,2093.1,1203.7z M2089.2,1201.3c-0.3,0-0.5,0.2-0.7,0.4c-0.2,0.4-0.2,0.8-0.2,1.3c0,0.1,0.1,0.1,0.2,0.1
	c0.3,0,0.6,0,0.9,0c0,0,0,0,0,0c0.1,0,0.2,0,0.3,0c0.3,0,0.6,0.1,0.7-0.1c0.2-0.2,0.1-0.5,0-0.8
	C2090.4,1201.5,2090,1201.2,2089.2,1201.3z"/>
<path class="st0" d="M2084.9,1188.3c0-1,0-2.1,0-3.1c1.1,1.1,2.1,2.1,3.2,3.2c0,0-0.1,0-0.1,0c-1,0-1.9,0-2.9,0
	C2084.9,1188.4,2084.9,1188.4,2084.9,1188.3z M2101.4,1197.6c0,11.5-9.3,20.8-20.8,20.8c-11.5,0-20.8-9.3-20.8-20.8
	c0-11.5,9.3-20.8,20.8-20.8C2092.1,1176.8,2101.4,1186.1,2101.4,1197.6z M2097.7,1204.8c0-0.5,0-1.1,0-1.6c-0.1-0.2-0.1-0.4-0.1-0.6
	c-0.2-1.5-0.9-2.8-1.8-4c-1.1-1.3-2.4-2.1-4-2.6c-0.4-0.1-0.8-0.2-1.2-0.3c-0.2,0-0.3-0.1-0.3-0.3c0-2.4,0-4.9,0-7.3
	c0-0.2-0.1-0.3-0.2-0.5c-0.8-0.8-1.7-1.7-2.5-2.5c-0.7-0.7-1.5-1.5-2.2-2.2c-0.1-0.1-0.2-0.1-0.2-0.2c-5.6,0-11.2,0-16.7,0
	c-0.2,0-0.2,0-0.2,0.2c0,9.7,0,19.3,0,29c0,0.2,0,0.2,0.2,0.2c7.3,0,14.6,0,21.8,0c0.1-0.1,0.3-0.1,0.5-0.1c1.5-0.3,2.8-0.9,3.9-1.8
	c1.1-0.9,1.8-2,2.4-3.3c0.2-0.6,0.4-1.2,0.5-1.9C2097.7,1205.1,2097.7,1204.9,2097.7,1204.8z M2088.6,1190.5c0,1.7,0,3.4,0,5
	c0,0.2,0,0.3-0.3,0.3c-1.5,0.2-2.8,0.8-4,1.7c-1.2,0.9-2,2.1-2.5,3.5c-0.1,0.2-0.1,0.2-0.3,0.2c-2.5,0-5,0-7.5,0
	c-0.5,0-0.9,0.1-1.3,0.4c-0.5,0.3-0.7,0.7-0.7,1.2c0,0.4,0,0.8,0,1.2c0,1.5,0,2.9,0,4.4c0,0.2,0.1,0.2,0.2,0.2c3.4,0,6.7,0,10.1,0
	c0.2,0,0.3,0.1,0.4,0.2c0.4,0.5,0.8,1,1.2,1.4c0.1,0.1,0.2,0.1,0.3,0.2c-0.2,0-0.2,0-0.3,0c-4.5,0-9.1,0-13.6,0
	c-0.2,0-0.2,0-0.2-0.2c0-8.4,0-16.9,0-25.3c0-0.2,0-0.2,0.2-0.2c4.1,0,8.3,0,12.4,0c0.2,0,0.2,0,0.2,0.2c0,1.7,0,3.4,0,5
	c0,0.2,0.1,0.2,0.3,0.2c1.7,0,3.3,0,5,0C2088.5,1190.2,2088.6,1190.3,2088.6,1190.5z M2083,1195.8c0-2-1.6-3.7-3.7-3.7
	c-2,0-3.7,1.6-3.6,3.7c0,2,1.6,3.7,3.7,3.7C2081.4,1199.4,2083,1197.8,2083,1195.8z M2095.9,1204.1c0,3.5-2.9,6.4-6.4,6.4
	c-3.5,0-6.4-2.9-6.4-6.5c0-3.5,2.9-6.4,6.5-6.4C2093,1197.6,2095.9,1200.5,2095.9,1204.1z M2093.1,1203.7c0-0.2,0.1-0.4,0-0.5
	c-0.1-0.1-0.3,0-0.5,0c-0.2,0-0.3,0-0.2-0.2c0-0.6-0.1-1.3-0.3-1.9c-0.2-0.5-0.5-0.9-0.9-1.1c-0.6-0.4-1.3-0.5-2-0.4
	c-0.9,0.1-1.6,0.5-2.1,1.2c-0.4,0.6-0.5,1.2-0.5,1.9c0,0.2,0.1,0.4,0,0.5c-0.1,0.1-0.3,0-0.5,0c-0.2,0-0.2,0-0.2,0.2
	c0,1.4,0,2.8,0,4.2c0,0.2,0,0.2,0.2,0.2c1.2,0,2.3,0,3.5,0c1.2,0,2.3,0,3.5,0c0.2,0,0.2,0,0.2-0.2
	C2093.1,1206.2,2093.1,1205,2093.1,1203.7z M2089.2,1201.3c-0.3,0-0.5,0.2-0.7,0.4c-0.2,0.4-0.2,0.8-0.2,1.3c0,0.1,0.1,0.1,0.2,0.1
	c0.3,0,0.6,0,0.9,0c0,0,0,0,0,0c0.1,0,0.2,0,0.3,0c0.3,0,0.6,0.1,0.7-0.1c0.2-0.2,0.1-0.5,0-0.8
	C2090.4,1201.5,2090,1201.2,2089.2,1201.3z"/>
<path class="st1" d="M25.1,11.5c0-1,0-2.1,0-3.1c1.1,1.1,2.1,2.1,3.2,3.2c0,0-0.1,0-0.1,0c-1,0-1.9,0-2.9,0
	C25.1,11.7,25.1,11.6,25.1,11.5z M41.7,20.8c0,11.5-9.3,20.8-20.8,20.8C9.3,41.7,0,32.3,0,20.8C0,9.3,9.3,0,20.8,0
	C32.3,0,41.7,9.3,41.7,20.8z M38,28.1c0-0.5,0-1.1,0-1.6c-0.1-0.2-0.1-0.4-0.1-0.6c-0.2-1.5-0.9-2.8-1.8-4c-1.1-1.3-2.4-2.1-4-2.6
	c-0.4-0.1-0.8-0.2-1.2-0.3c-0.2,0-0.3-0.1-0.3-0.3c0-2.4,0-4.9,0-7.3c0-0.2-0.1-0.3-0.2-0.5c-0.8-0.8-1.7-1.7-2.5-2.5
	c-0.7-0.7-1.5-1.5-2.2-2.2c-0.1-0.1-0.2-0.1-0.2-0.2c-5.6,0-11.2,0-16.7,0c-0.2,0-0.2,0-0.2,0.2c0,9.7,0,19.3,0,29
	c0,0.2,0,0.2,0.2,0.2c7.3,0,14.6,0,21.8,0c0.1-0.1,0.3-0.1,0.5-0.1c1.5-0.3,2.8-0.9,3.9-1.8c1.1-0.9,1.8-2,2.4-3.3
	c0.2-0.6,0.4-1.2,0.5-1.9C37.9,28.3,37.9,28.2,38,28.1z M28.8,13.7c0,1.7,0,3.4,0,5c0,0.2,0,0.3-0.3,0.3c-1.5,0.2-2.8,0.8-4,1.7
	c-1.2,0.9-2,2.1-2.5,3.5c-0.1,0.2-0.1,0.2-0.3,0.2c-2.5,0-5,0-7.5,0c-0.5,0-0.9,0.1-1.3,0.4c-0.5,0.3-0.7,0.7-0.7,1.2
	c0,0.4,0,0.8,0,1.2c0,1.5,0,2.9,0,4.4c0,0.2,0.1,0.2,0.2,0.2c3.4,0,6.7,0,10.1,0c0.2,0,0.3,0.1,0.4,0.2c0.4,0.5,0.8,1,1.2,1.4
	c0.1,0.1,0.2,0.1,0.3,0.2c-0.2,0-0.2,0-0.3,0c-4.5,0-9.1,0-13.6,0c-0.2,0-0.2,0-0.2-0.2c0-8.4,0-16.9,0-25.3c0-0.2,0-0.2,0.2-0.2
	c4.1,0,8.3,0,12.4,0c0.2,0,0.2,0,0.2,0.2c0,1.7,0,3.4,0,5c0,0.2,0.1,0.2,0.3,0.2c1.7,0,3.3,0,5,0C28.7,13.5,28.8,13.5,28.8,13.7z
	 M23.3,19c0-2-1.6-3.7-3.7-3.7c-2,0-3.7,1.6-3.6,3.7c0,2,1.6,3.7,3.7,3.7C21.6,22.7,23.3,21,23.3,19z M36.1,27.3
	c0,3.5-2.9,6.4-6.4,6.4c-3.5,0-6.4-2.9-6.4-6.5c0-3.5,2.9-6.4,6.5-6.4C33.3,20.9,36.1,23.7,36.1,27.3z M33.4,26.9
	c0-0.2,0.1-0.4,0-0.5c-0.1-0.1-0.3,0-0.5,0c-0.2,0-0.3,0-0.2-0.2c0-0.6-0.1-1.3-0.3-1.9c-0.2-0.5-0.5-0.9-0.9-1.1
	c-0.6-0.4-1.3-0.5-2-0.4c-0.9,0.1-1.6,0.5-2.1,1.2c-0.4,0.6-0.5,1.2-0.5,1.9c0,0.2,0.1,0.4,0,0.5c-0.1,0.1-0.3,0-0.5,0
	c-0.2,0-0.2,0-0.2,0.2c0,1.4,0,2.8,0,4.2c0,0.2,0,0.2,0.2,0.2c1.2,0,2.3,0,3.5,0c1.2,0,2.3,0,3.5,0c0.2,0,0.2,0,0.2-0.2
	C33.4,29.5,33.4,28.2,33.4,26.9z M29.5,24.5c-0.3,0-0.5,0.2-0.7,0.4c-0.2,0.4-0.2,0.8-0.2,1.3c0,0.1,0.1,0.1,0.2,0.1
	c0.3,0,0.6,0,0.9,0c0,0,0,0,0,0c0.1,0,0.2,0,0.3,0c0.3,0,0.6,0.1,0.7-0.1c0.2-0.2,0.1-0.5,0-0.8C30.7,24.8,30.2,24.4,29.5,24.5z"/>
</svg>
