<?xml version="1.0" encoding="utf-8"?>
<!-- Generator: Adobe Illustrator 24.1.2, SVG Export Plug-In . SVG Version: 6.00 Build 0)  -->
<svg version="1.1" id="Layer_1" xmlns="http://www.w3.org/2000/svg" xmlns:xlink="http://www.w3.org/1999/xlink" x="0px" y="0px"
	 width="41.7px" height="41.7px" viewBox="0 0 41.7 41.7" style="enable-background:new 0 0 41.7 41.7;" xml:space="preserve">
<style type="text/css">
	.st0{fill-rule:evenodd;clip-rule:evenodd;fill:#FFFFFF;}
</style>
<g>
	<path class="st0" d="M20.8,0C9.3,0,0,9.3,0,20.8s9.3,20.8,20.8,20.8s20.8-9.3,20.8-20.8C41.7,9.3,32.3,0,20.8,0z M31.1,31.9H10.5
		c-1.3,0-2.3-1.1-2.3-2.3v-0.1L10.4,16c0.1-1.3,1.1-2.3,2.3-2.3H15v-3.2c0-1.5,1.3-2.8,2.8-2.8h6.1c1.5,0,2.8,1.3,2.8,2.8v3.2h2.1
		c1.3,0,2.3,1,2.3,2.3l2.3,13.5C33.4,30.9,32.4,31.9,31.1,31.9z"/>
	<path class="st0" d="M28.8,15.3h-2.1v3.5c0.5,0.3,0.9,0.9,1,1.6c0,1-0.8,1.8-1.8,1.8c-1,0-1.8-0.8-1.8-1.8c0-0.7,0.3-1.2,0.8-1.5
		v-3.6h-7.9v3.5c0.5,0.3,0.9,0.9,0.9,1.5c0,1-0.8,1.8-1.8,1.8c-1,0-1.8-0.8-1.8-1.8c0-0.6,0.3-1.1,0.8-1.5v-3.6h-2.2
		c-0.4,0-0.8,0.3-0.8,0.8v0.1L9.8,29.6c0,0.4,0.3,0.7,0.7,0.7h20.6c0.4,0,0.7-0.3,0.7-0.7l-2.3-13.5C29.6,15.7,29.2,15.3,28.8,15.3z
		"/>
	<path class="st0" d="M24.8,10.5c0-0.5-0.4-0.9-0.9-0.9h-6.1c-0.5,0-0.9,0.4-0.9,0.9v3.2h7.9V10.5z"/>
</g>
</svg>
