<?xml version="1.0" encoding="utf-8"?>
<!-- Generator: Adobe Illustrator 26.3.1, SVG Export Plug-In . SVG Version: 6.00 Build 0)  -->
<svg version="1.1" id="Layer_1" xmlns="http://www.w3.org/2000/svg" xmlns:xlink="http://www.w3.org/1999/xlink" x="0px" y="0px"
	 viewBox="0 0 41.7 41.7" style="enable-background:new 0 0 41.7 41.7;" xml:space="preserve">
<style type="text/css">
	.st0{fill-rule:evenodd;clip-rule:evenodd;fill:#FFFFFF;}
</style>
<path class="st0" d="M20.8,0C9.3,0,0,9.3,0,20.8c0,11.5,9.3,20.8,20.8,20.8c11.5,0,20.8-9.3,20.8-20.8c0,0,0,0,0,0
	C41.7,9.3,32.3,0,20.8,0z M31.3,17.2c0,0.2,0,0.4,0,0.6c0,6.5-4.9,14-14,14c-2.8,0-5.4-0.8-7.5-2.2c0.4,0,0.8,0.1,1.2,0.1
	c2.3,0,4.4-0.8,6.1-2.1c-2.1,0-4-1.5-4.6-3.4c0.3,0.1,0.6,0.1,0.9,0.1c0.4,0,0.9-0.1,1.3-0.2c-2.2-0.5-3.9-2.4-3.9-4.8
	c0,0,0,0,0-0.1c0.7,0.4,1.4,0.6,2.2,0.6c-1.3-0.9-2.2-2.4-2.2-4.1c0-0.9,0.2-1.7,0.7-2.5c2.4,3,6,4.9,10.1,5.1
	c-0.1-0.4-0.1-0.7-0.1-1.1c0-2.7,2.2-4.9,4.9-4.9c1.4,0,2.7,0.6,3.6,1.6c1.1-0.2,2.2-0.6,3.1-1.2c-0.4,1.1-1.1,2.1-2.2,2.7
	c1-0.1,1.9-0.4,2.8-0.8C33.1,15.6,32.3,16.5,31.3,17.2z"/>
</svg>
