<svg id="Layer_1" data-name="Layer 1" xmlns="http://www.w3.org/2000/svg" width="41.67" height="41.67" viewBox="0 0 41.67 41.67"><defs><style>.cls-1{fill:#fff;fill-rule:evenodd;}</style></defs><title>Facebook</title><path class="cls-1" d="M20.83,0A20.84,20.84,0,1,0,41.67,20.83,20.84,20.84,0,0,0,20.83,0Zm5.92,17.74-.12,2.59c0,.33,0,.66,0,1s-.05.28-.29.28H22.57c-.26,0-.26,0-.26.26v10.8c0,.32,0,.34-.34.34H18.23c-.28,0-.3,0-.3-.3V22c0-.41,0-.36-.35-.36-.8,0-1.59,0-2.38,0-.25,0-.29,0-.29-.29V17.74c0-.26,0-.29.3-.29h2.51c.17,0,.21-.05.21-.2V14a5.73,5.73,0,0,1,.33-2A4.74,4.74,0,0,1,21.2,9.09a6.53,6.53,0,0,1,2.28-.42l2.16,0c.3,0,.6.07.9.09s.2.08.2.22l0,1.69c0,.41,0,.81,0,1.22,0,.19,0,.38,0,.57a.16.16,0,0,1-.16.18h-.19c-.74,0-1.47,0-2.2,0a4.52,4.52,0,0,0-.74.06,1.14,1.14,0,0,0-1,1.14c0,.85,0,1.71,0,2.56,0,.28,0,.55,0,.83s.05.19.2.19h4C26.75,17.45,26.76,17.45,26.75,17.74Z"/></svg>