<?xml version="1.0" encoding="utf-8"?>
<!-- Generator: Adobe Illustrator 24.1.0, SVG Export Plug-In . SVG Version: 6.00 Build 0)  -->
<svg version="1.1" id="Layer_1" xmlns="http://www.w3.org/2000/svg" xmlns:xlink="http://www.w3.org/1999/xlink" x="0px" y="0px"
	 width="41.7px" height="41.7px" viewBox="0 0 41.7 41.7" style="enable-background:new 0 0 41.7 41.7;" xml:space="preserve">
<style type="text/css">
	.st0{fill-rule:evenodd;clip-rule:evenodd;fill:#FFFFFF;}
</style>
<path class="st0" d="M20.8,0C9.3,0,0,9.3,0,20.8c0,11.5,9.3,20.8,20.8,20.8c11.5,0,20.8-9.3,20.8-20.8c0,0,0,0,0,0
	C41.7,9.3,32.3,0,20.8,0z M15.6,20.8c0,0.1,0,0.2,0,0.3l9,4.4c0.7-0.6,1.6-0.9,2.6-0.9c2.3,0,4.2,1.9,4.2,4.2S29.5,33,27.2,33
	c-2.3,0-4.2-1.9-4.2-4.2c0-0.1,0-0.2,0-0.3l-9-4.4c-0.7,0.6-1.6,0.9-2.6,0.9c-2.3,0-4.2-1.9-4.2-4.2c0-2.3,1.9-4.2,4.2-4.2
	c1,0,2,0.4,2.7,1l8.9-4.4c0-0.1,0-0.2,0-0.3c0-2.3,1.9-4.2,4.2-4.2c2.3,0,4.2,1.9,4.2,4.2s-1.9,4.2-4.2,4.2c-1,0-1.9-0.3-2.6-0.9
	l-9,4.5C15.6,20.7,15.6,20.8,15.6,20.8z"/>
</svg>
