<?xml version="1.0" encoding="utf-8"?>
<!-- Generator: Adobe Illustrator 25.2.3, SVG Export Plug-In . SVG Version: 6.00 Build 0)  -->
<svg version="1.1" id="Layer_1" xmlns="http://www.w3.org/2000/svg" xmlns:xlink="http://www.w3.org/1999/xlink" x="0px" y="0px"
	 width="41.7px" height="41.7px" viewBox="0 0 41.7 41.7" style="enable-background:new 0 0 41.7 41.7;" xml:space="preserve">
<style type="text/css">
	.st0{fill:#159CBF;}
	.st1{fill-rule:evenodd;clip-rule:evenodd;fill:#FFFFFF;}
</style>
<circle class="st0" cx="20.8" cy="20.8" r="15.8"/>
<path class="st1" d="M20.8,0C9.3,0,0,9.3,0,20.8s9.3,20.8,20.8,20.8s20.8-9.3,20.8-20.8l0,0C41.7,9.3,32.3,0,20.8,0z M31.7,15.8
	c-0.4,0.4-0.8,0.8-1.3,1.2c0,0.1,0,0.1,0,0.2c0,0.5,0,1,0,1.6c-0.1,0.8-0.2,1.6-0.4,2.4c-0.6,2.1-1.6,4-3,5.7
	c-1.9,2.3-4.4,3.8-7.3,4.5c-0.8,0.2-1.6,0.3-2.4,0.3c-0.5,0-1.1,0-1.6,0c-1.6-0.1-3.2-0.4-4.7-1c-0.7-0.3-1.4-0.6-2-1l-0.1-0.1l0,0
	c1.7,0.2,3.4-0.1,5-0.7c0.8-0.3,1.5-0.8,2.1-1.3c0,0,0,0-0.1,0c-0.2,0-0.5,0-0.7-0.1c-1.6-0.3-3-1.4-3.6-2.9
	c-0.1-0.1-0.1-0.3-0.1-0.4l0.7,0.1c0.2,0,0.5,0,0.7,0s0.5-0.1,0.7-0.1l-0.1-0.1c-2.2-0.5-3.7-2.4-3.8-4.7c0-0.1,0-0.1,0-0.2
	c0.2,0.1,0.5,0.2,0.7,0.3c0.2,0.1,0.5,0.1,0.7,0.2c0.3,0.1,0.5,0.1,0.8,0.1c-0.1-0.1-0.2-0.2-0.3-0.2l-0.3-0.2L11.1,19l-0.2-0.2
	c-0.1-0.1-0.1-0.2-0.2-0.3s-0.1-0.2-0.2-0.3s-0.1-0.2-0.2-0.3c-0.1-0.1-0.1-0.2-0.1-0.3c-0.1-0.1-0.1-0.2-0.1-0.3S10,17,10,16.9
	l-0.1-0.3l-0.1-0.3c0-0.1,0-0.2,0-0.3s0-0.2,0-0.3v-0.3v-0.3c0-0.1,0-0.2,0-0.3s0-0.2,0.1-0.3l0.1-0.3c0-0.1,0.1-0.2,0.1-0.3
	s0.1-0.2,0.1-0.3s0.1-0.2,0.2-0.3c0.1,0,0.1,0.1,0.1,0.1c0.4,0.5,0.8,0.9,1.3,1.3c1.8,1.7,4.1,2.9,6.5,3.4c0.7,0.1,1.3,0.2,2,0.3
	h0.3c-0.3-1.2-0.1-2.4,0.5-3.4c0.5-0.9,1.2-1.6,2.1-2.1c2-1,4.3-0.6,5.8,1c0.1,0,0.1,0,0.2,0c1-0.2,1.9-0.5,2.8-1l0.2-0.1l0,0
	c-0.1,0.3-0.2,0.5-0.3,0.8c-0.1,0.3-0.3,0.5-0.5,0.7s-0.4,0.4-0.6,0.6c-0.2,0.2-0.5,0.4-0.7,0.6c0.9-0.1,1.9-0.4,2.7-0.8
	C32.5,15,32.1,15.4,31.7,15.8z"/>
</svg>
