<svg id="Layer_1" data-name="Layer 1" xmlns="http://www.w3.org/2000/svg" width="41.67" height="41.67" viewBox="0 0 41.67 41.67"><defs><style>.cls-1{fill:#fff;fill-rule:evenodd;}</style></defs><title>Twitter</title><path class="cls-1" d="M20.83,0A20.84,20.84,0,1,0,41.67,20.83,20.84,20.84,0,0,0,20.83,0Zm10.9,15.83A10.74,10.74,0,0,1,30.43,17a.5.5,0,0,0,0,.21,11.61,11.61,0,0,1,0,1.56A13.73,13.73,0,0,1,30,21.12,14.55,14.55,0,0,1,27,26.82a13.16,13.16,0,0,1-7.3,4.49,14.92,14.92,0,0,1-2.4.34,11.92,11.92,0,0,1-1.58,0A13.94,13.94,0,0,1,11,30.62a15,15,0,0,1-2-1l-.13-.1v0a9.82,9.82,0,0,0,5-.74A8.76,8.76,0,0,0,16,27.45s0,0-.08,0c-.24,0-.48-.05-.72-.1a5,5,0,0,1-3.6-2.92,2.08,2.08,0,0,1-.14-.4l.72.07a4.34,4.34,0,0,0,.72,0,3.67,3.67,0,0,0,.71-.13.25.25,0,0,0-.14-.06,4.93,4.93,0,0,1-3.75-4.67,1.09,1.09,0,0,1,0-.17,7,7,0,0,0,.7.3,6.13,6.13,0,0,0,.7.2,2.76,2.76,0,0,0,.77.08c-.1-.1-.2-.16-.28-.23l-.26-.22-.23-.22-.22-.25c-.08-.09-.14-.18-.21-.27s-.13-.19-.19-.28-.11-.19-.16-.28a2.1,2.1,0,0,1-.15-.3c-.05-.1-.09-.21-.13-.31S10,17,10,16.9l-.09-.32-.06-.32c0-.11,0-.22,0-.33s0-.23,0-.34v-.34l0-.32c0-.11,0-.22,0-.33a3.4,3.4,0,0,1,.07-.34l.09-.32c0-.1.07-.2.11-.3s.09-.21.14-.31a2.69,2.69,0,0,1,.16-.29c.07,0,.1.06.13.11a14.59,14.59,0,0,0,1.28,1.33,14,14,0,0,0,6.51,3.39,14.52,14.52,0,0,0,2,.28h.3a5,5,0,0,1,.47-3.45,4.87,4.87,0,0,1,2.12-2.07,5,5,0,0,1,5.83,1,.31.31,0,0,0,.19,0,10.13,10.13,0,0,0,2.76-1l.16-.08h0a3.66,3.66,0,0,1-.33.79,5.63,5.63,0,0,1-.48.72,3.71,3.71,0,0,1-.58.61c-.22.19-.45.36-.7.56a9.92,9.92,0,0,0,2.74-.75A8,8,0,0,1,31.73,15.83Z" transform="translate(0)"/></svg>