<svg id="Layer_1" data-name="Layer 1" xmlns="http://www.w3.org/2000/svg" width="41.67" height="41.67" viewBox="0 0 41.67 41.67"><defs><style>.cls-1{fill:#fff;fill-rule:evenodd;}</style></defs><title>PressKit</title><path class="cls-1" d="M9.37,9.77H8.51l-.69,3.9h.86c.57,0,.93-.26,1.08-1.08l.3-1.73C10.21,10,9.94,9.77,9.37,9.77Z"/><path class="cls-1" d="M16.1,12.1,16.3,11c.14-.82-.07-1.19-.71-1.19h-.88l-.62,3.54h.71C15.47,13.31,15.94,13,16.1,12.1Z"/><path class="cls-1" d="M20.83,0A20.84,20.84,0,1,0,41.67,20.83,20.84,20.84,0,0,0,20.83,0Zm3.92,8.13-.29,1.64H21.33L20.76,13h2.49L23,14.63H20.47L19.88,18H23l-.3,1.65H17.78l2-11.52Zm-8.82,0c1.87,0,2.53.87,2.21,2.65l-.16.9A2.83,2.83,0,0,1,16.38,14c.84.38,1,1.25.78,2.45l-.32,1.78a3.37,3.37,0,0,0-.05,1.4H15A3.47,3.47,0,0,1,15,18.23l.32-1.81c.19-1.07-.1-1.46-.93-1.46H13.8L13,19.65H11.16l2-11.52Zm-8.4,7.19-.76,4.33H5L7,8.13H9.66c1.81,0,2.52,1,2.19,2.84l-.26,1.5a3,3,0,0,1-3.2,2.85ZM15.12,36.6l-1.24-6-1,1.37L12.1,36.6H9.74l2.65-15h2.35l-1.15,6.53,4.24-6.53h2.36l-4.46,6.68,1.81,8.32Zm5.85,0H18.61l2.64-15h2.36ZM24,16.89l.12-.71h1.72l-.15.82c-.14.82.17,1.12.74,1.12s1-.3,1.14-1.12c.42-2.37-3-2.81-2.46-6.11A3.07,3.07,0,0,1,28.32,8c1.76,0,2.48,1.05,2.16,2.89l-.06.37H28.7l.09-.48c.14-.83-.13-1.14-.71-1.14s-1,.31-1.1,1.14c-.42,2.37,3,2.81,2.46,6.11a3.1,3.1,0,0,1-3.21,2.89C24.45,19.78,23.71,18.73,24,16.89Zm7.51,6.85H29.08L26.82,36.6H24.46l2.27-12.86H24.26l.38-2.14h7.28Zm5-12.48H34.86l.08-.48c.15-.83-.13-1.14-.7-1.14s-1,.31-1.11,1.14c-.42,2.37,3,2.81,2.46,6.11a3.09,3.09,0,0,1-3.21,2.89c-1.77,0-2.51-1.05-2.19-2.89l.13-.71H32l-.14.82c-.15.82.16,1.12.74,1.12s1-.3,1.13-1.12c.42-2.37-3-2.81-2.46-6.11A3.08,3.08,0,0,1,34.48,8c1.76,0,2.48,1.05,2.15,2.89Z"/></svg>