<?xml version="1.0" encoding="utf-8"?>
<!-- Generator: Adobe Illustrator 24.1.0, SVG Export Plug-In . SVG Version: 6.00 Build 0)  -->
<svg version="1.1" id="Layer_1" xmlns="http://www.w3.org/2000/svg" xmlns:xlink="http://www.w3.org/1999/xlink" x="0px" y="0px"
	 width="54.8px" height="37.3px" viewBox="0 0 54.8 37.3" style="enable-background:new 0 0 54.8 37.3;" xml:space="preserve">
<style type="text/css">
	.st0{fill:#FFFFFF;}
</style>
<g>
	<path class="st0" d="M47.7,14.9c-0.5,2-2.5,4-4.8,5.6c0.1-0.2,0.1-0.4,0.2-0.6c0.9-2.9,1.8-5.8,2.7-8.7c1-0.1,1.5-0.4,1.5-0.4
		c0.4-1.2,0.8-2.5,1.2-3.7c0.2-0.5,0.3-1,0.5-1.5L49.5,4c-0.9-0.4-1.8-0.8-2.7-1.2c-0.2,0.5-0.3,1-0.5,1.5c-0.5-0.2-0.9-0.3-1.4-0.5
		c0.1-0.5,0.3-1.1,0.4-1.6c-1-0.3-2-0.6-3-0.9c-0.1,0.5-0.2,1.1-0.4,1.6c-0.5-0.1-1-0.2-1.5-0.4c0.1-0.6,0.2-1.1,0.3-1.7
		c-1.1-0.2-2.2-0.4-3.3-0.6l-0.3,1.7c-0.1,0.6-0.2,1.1-0.3,1.7c-0.2,1.4-0.4,2.7-0.6,4.1c0,0,0.4,0.6,1.3,1.2
		c-0.2,0.9-0.3,1.8-0.5,2.7c-2.5-0.4-5-0.6-7.5-0.7c0,0.8-0.1,1.7-0.1,2.5c-1.4,0-2.7,0-4.1,0l-0.1-2.5c-2.5,0.1-5,0.3-7.5,0.7
		c-0.2-0.9-0.3-1.8-0.5-2.7c0.9-0.7,1.3-1.2,1.3-1.2c-0.2-1.4-0.4-2.7-0.6-4.1c-0.1-0.6-0.2-1.1-0.3-1.7S17.6,1,17.5,0.4
		c-1.1,0.2-2.2,0.4-3.3,0.6l0.3,1.7c-0.5,0.1-1,0.2-1.5,0.4c-0.1-0.5-0.2-1.1-0.4-1.6c-1,0.3-2.1,0.6-3,0.9c0.1,0.5,0.3,1.1,0.4,1.6
		c-0.5,0.2-1,0.3-1.4,0.5c-0.2-0.5-0.3-1-0.5-1.6C7.2,3.2,6.3,3.6,5.5,4L6,5.5C6.1,6,6.3,6.5,6.5,7c0.4,1.2,0.8,2.5,1.2,3.7
		c0,0,0.5,0.3,1.5,0.5c0.8,2.6,1.6,5.2,2.4,7.7c0.2,0.5,0.3,1,0.5,1.6c-2.3-1.5-4.3-3.6-4.8-5.6c-2,1.4-5.9,0.7-6.3,6.5
		c0.9-1.6,2.4-1.3,4,1.7c0.4-1.7,2.3-1.5,4.1,0.5c-0.2-0.9-0.3-2.6,3.4-2.1c1.5,5.1,3.1,10.2,4.5,15.3h6.6c-0.3-2.3,0.1-4.2,0.9-4.2
		c0.8,0,1.5,1.9,1.6,4.2h2.9c0.1-2.3,0.8-4.2,1.6-4.2c0.8,0,1.2,1.9,0.9,4.2H38c1.5-5.1,3-10.2,4.5-15.3c3.7-0.5,3.6,1.2,3.4,2.1
		c1.8-2.1,3.7-2.3,4.1-0.5c1.6-3,3.1-3.3,4-1.7C53.5,15.6,49.7,16.3,47.7,14.9z M18.2,22.7c-2.2-2.3-3.4-6.3-1.8-9.3
		c0,0,0.9,2.2,3.9,5.2c2.9,3.1,4.4,3.5,4.5,3.5C23,24.9,20.5,25.1,18.2,22.7z M36.7,22.7c-2.3,2.3-4.8,2.2-6.5-0.5
		c0,0,1.6-0.4,4.5-3.5c3-3.1,3.9-5.2,3.9-5.2C40.1,16.4,39,20.4,36.7,22.7z"/>
</g>
</svg>
