<svg id="Layer_1" data-name="Layer 1" xmlns="http://www.w3.org/2000/svg" width="170.67" height="37.32" viewBox="0 0 170.67 37.32"><defs><style>.cls-1{fill:#fff;}</style></defs><title>MidBossLogoMobile</title><path class="cls-1" d="M52.56,2.67l-.15.16c-6.9,7.05-14.27,14.19-22,21.26,5.34-6.84,11.12-13.74,17.22-20.56l.77-.86H41.68L0,39.19H7.92L26,22.06C21.35,27.5,16.9,33,12.73,38.35l-.64.84h8.13l.14-.14c6.09-5.56,12-11.17,17.62-16.77l-14,16.91h8.23l27-36.52Z" transform="translate(0 -2.27)"/><polygon class="cls-1" points="60.72 0.4 36.23 36.92 44.77 36.92 65.76 0.4 60.72 0.4"/><path class="cls-1" d="M77.46,4.18a4.44,4.44,0,0,0-3.63-1.51H67.37L48.92,39.19H61.27c7.46,0,12-3.18,13.2-9.18l3.79-18C79,8.35,78.72,5.7,77.46,4.18ZM62.94,33.09H59.88l10-24.31H72c.6,0,.76.21.81.28s.36.83-.14,2.49L67,30A3.78,3.78,0,0,1,62.94,33.09Z" transform="translate(0 -2.27)"/><path class="cls-1" d="M98.08,27.29C97.53,23.59,96,21,93.5,19.7c1.83-1.35,2.46-3.65,2-7.15l-.17-1.28c-.88-5.87-3.22-8.6-7.36-8.6h-6.3L76.13,39.19h12c4.31,0,7.34-1,9-3a7.16,7.16,0,0,0,1.32-6ZM85.37,23.22h2.08c2.12,0,3.22.59,3.4,3.82L91,30.13a3,3,0,0,1-.55,2.29,3,3,0,0,1-2.28.67H84.83Zm3.73-6.7a2.51,2.51,0,0,1-1.88.6H85.71l.46-8.34h1.62c.88,0,1.72.38,1.85,3.15l.08,2A3.61,3.61,0,0,1,89.1,16.52Z" transform="translate(0 -2.27)"/><path class="cls-1" d="M112.45,11.47c-3-5.93-6.75-9.2-10.61-9.2a4.43,4.43,0,0,0-3.58,1.52c-1.34,1.59-1.68,4.29-1,8l3.58,18.45c1,5.93,5.91,9.34,13.34,9.34,4,0,6.65-1,7.82-2.85,1-1.69.85-4-.58-6.81Zm1.86,21.42c-.27.4-.9.6-1.88.6a3.8,3.8,0,0,1-4.05-3.12l-5.56-19.16c-.47-1.68-.25-2.32-.08-2.55.05-.07.22-.29.82-.29,1.26,0,2.28,1,3.12,3.17l7.45,19.16C114.41,31.41,114.67,32.36,114.31,32.89Z" transform="translate(0 -2.27)"/><path class="cls-1" d="M129.48,19.09c-4.35-2.44-8.1-4.55-10.15-8-1.23-2-1.06-2.49-1-2.57s.24-.14.53-.14c1.27,0,2.67,1.07,4.28,3.28l1.22,1.69h5.89l-1.6-2c-5-5.95-9.57-9.1-13.33-9.1a3.21,3.21,0,0,0-3,1.37c-1,1.56-.4,4.36,1.63,8.29,2.94,5.92,8.16,8.87,13.2,11.73,3.73,2.11,7.26,4.11,9.58,7.15,1.07,1.49,1,2,.91,2.21s-.7.42-1.55.42a5.84,5.84,0,0,1-5.24-3.2l-1.72-2.78h-7.06l1.56,2.93c3,5.94,8.77,9.2,16.1,9.2,3.69,0,5.95-.83,6.71-2.47s-.1-4.18-2.7-7.3C139.27,24.58,134.07,21.66,129.48,19.09Z" transform="translate(0 -2.27)"/><path class="cls-1" d="M165.64,29.76c-6.14-5.21-12.27-8.12-17.69-10.69-5.16-2.45-9.63-4.57-12.84-8.08-1.71-1.8-1.89-2.42-1.9-2.58a1.31,1.31,0,0,1,.35,0c1.3,0,3.1,1.09,5.48,3.36l1.69,1.61h6.12l-2.31-2c-4.78-4.12-11.46-9-16.17-9-1.33,0-2.19.41-2.57,1.21C125.08,5,126.45,7.84,130,12c4.82,5.87,11,8.8,16.91,11.65,4.44,2.12,8.63,4.12,12,7.2,1.86,1.78,1.7,2.28,1.69,2.3s-.32.26-1.26.26c-2.25,0-4.35-1.08-6.43-3.29l-2.55-2.69h-7.25l2.59,3a24.49,24.49,0,0,0,18.94,9.1c3.45,0,5.39-.7,5.93-2.16C171.18,35.67,169.59,33.16,165.64,29.76Z" transform="translate(0 -2.27)"/></svg>