<?xml version="1.0" encoding="utf-8"?>
<!-- Generator: Adobe Illustrator 25.2.3, SVG Export Plug-In . SVG Version: 6.00 Build 0)  -->
<svg version="1.1" id="Layer_1" xmlns="http://www.w3.org/2000/svg" xmlns:xlink="http://www.w3.org/1999/xlink" x="0px" y="0px"
	 width="41.7px" height="41.7px" viewBox="0 0 41.7 41.7" style="enable-background:new 0 0 41.7 41.7;" xml:space="preserve">
<style type="text/css">
	.st0{fill:#159CBF;}
	.st1{fill-rule:evenodd;clip-rule:evenodd;fill:#FFFFFF;}
</style>
<circle class="st0" cx="20.8" cy="20.8" r="20.2"/>
<path class="st1" d="M9.4,9.8H8.5l-0.7,3.9h0.9c0.6,0,0.9-0.3,1.1-1.1l0.3-1.7C10.2,10,9.9,9.8,9.4,9.8z"/>
<path class="st1" d="M16.1,12.1l0.2-1.1c0.1-0.8-0.1-1.2-0.7-1.2h-0.9l-0.6,3.5h0.7C15.5,13.3,15.9,13,16.1,12.1z"/>
<path class="st1" d="M20.8,0C9.3,0,0,9.3,0,20.8s9.3,20.8,20.8,20.8s20.8-9.3,20.8-20.8l0,0C41.7,9.3,32.3,0,20.8,0z M24.8,8.1
	l-0.3,1.6h-3.1L20.8,13h2.5L23,14.6h-2.5L19.9,18H23l-0.3,1.6h-4.9l2-11.5H24.8z M15.9,8.1c1.9,0,2.5,0.9,2.2,2.7L18,11.7
	c-0.1,1-0.7,1.9-1.6,2.3c0.8,0.4,1,1.2,0.8,2.5l-0.3,1.8c-0.1,0.5-0.1,0.9,0,1.4H15c-0.1-0.5-0.1-0.9,0-1.4l0.3-1.8
	c0.2-1.1-0.1-1.5-0.9-1.5h-0.6L13,19.6h-1.8l2-11.5H15.9z M7.5,15.3l-0.8,4.3H5L7,8.1h2.7c1.8,0,2.5,1,2.2,2.8l-0.3,1.5
	c-0.1,1.7-1.5,2.9-3.1,2.9c0,0,0,0-0.1,0C8.4,15.3,7.5,15.3,7.5,15.3z M15.1,36.6l-1.2-6l-1,1.4l-0.8,4.6H9.7l2.6-15h2.4l-1.1,6.5
	l4.2-6.5h2.4l-4.5,6.7l1.8,8.3H15.1z M21,36.6h-2.4l2.6-15h2.4L21,36.6z M24,16.9l0.1-0.7h1.7L25.7,17c-0.1,0.8,0.2,1.1,0.7,1.1
	s1-0.3,1.1-1.1c0.4-2.4-3-2.8-2.5-6.1c0.1-1.7,1.5-3,3.2-2.9c1.8,0,2.5,1.1,2.2,2.9l-0.1,0.4h-1.7l0.1-0.5c0.1-0.8-0.1-1.1-0.7-1.1
	s-1,0.3-1.1,1.1c-0.4,2.4,3,2.8,2.5,6.1c-0.1,1.7-1.5,3-3.2,2.9C24.5,19.8,23.7,18.7,24,16.9z M31.5,23.7h-2.4l-2.3,12.9h-2.4
	l2.3-12.9h-2.5l0.4-2.1h7.3L31.5,23.7z M36.5,11.3h-1.7l0.1-0.5c0.2-0.8-0.1-1.1-0.7-1.1s-1,0.3-1.1,1.1c-0.4,2.4,3,2.8,2.5,6.1
	c-0.1,1.7-1.5,3-3.2,2.9c-1.8,0-2.5-1-2.2-2.9l0.1-0.7H32L31.9,17c-0.1,0.8,0.2,1.1,0.7,1.1s1-0.3,1.1-1.1c0.4-2.4-3-2.8-2.5-6.1
	c0.1-1.7,1.5-3,3.2-2.9c1.8,0,2.5,1.1,2.2,2.9L36.5,11.3z"/>
</svg>
