<?xml version="1.0" encoding="utf-8"?>
<!-- Generator: Adobe Illustrator 24.1.2, SVG Export Plug-In . SVG Version: 6.00 Build 0)  -->
<svg version="1.1" id="Layer_1" xmlns="http://www.w3.org/2000/svg" xmlns:xlink="http://www.w3.org/1999/xlink" x="0px" y="0px"
	 width="41.7px" height="41.7px" viewBox="0 0 41.7 41.7" style="enable-background:new 0 0 41.7 41.7;" xml:space="preserve">
<style type="text/css">
	.st0{fill-rule:evenodd;clip-rule:evenodd;fill:#EA276D;}
</style>
<g>
	<path class="st0" d="M19.3,29.5l3.6-3.6H27l4.1-4.1V10.6H14.7v15.3h4.6V29.5z M25.9,14.2h2v6.1h-2V14.2z M20.3,14.2h2v6.1h-2V14.2z
		"/>
	<path class="st0" d="M20.8,0C9.3,0,0,9.3,0,20.8s9.3,20.8,20.8,20.8s20.8-9.3,20.8-20.8l0,0C41.7,9.3,32.3,0,20.8,0z M33.1,22.8
		L23.9,32h-4.1l-5.1,5.1V32H8.6V13.6l5.1-5.1h19.4V22.8z"/>
</g>
</svg>
