<?xml version="1.0" encoding="utf-8"?>
<!-- Generator: Adobe Illustrator 24.1.0, SVG Export Plug-In . SVG Version: 6.00 Build 0)  -->
<svg version="1.1" id="Layer_1" xmlns="http://www.w3.org/2000/svg" xmlns:xlink="http://www.w3.org/1999/xlink" x="0px" y="0px"
	 width="41.7px" height="41.7px" viewBox="0 0 41.7 41.7" style="enable-background:new 0 0 41.7 41.7;" xml:space="preserve">
<style type="text/css">
	.st0{fill-rule:evenodd;clip-rule:evenodd;fill:#FFFFFF;}
</style>
<g>
	<path class="st0" d="M14.2,27.9c1.8-0.8,3.7-1.3,5.7-1.4v-4.8h-6.8C13.2,24,13.6,26.1,14.2,27.9z"/>
	<path class="st0" d="M14.9,12c1.6,0.7,3.3,1.2,5,1.3V6.8C17.9,7.2,16.1,9.2,14.9,12z"/>
	<path class="st0" d="M19.9,34.9v-6.5c-1.8,0.1-3.5,0.5-5,1.3C16.1,32.5,17.9,34.4,19.9,34.9z"/>
	<path class="st0" d="M13.1,19.9h6.8v-4.8c-2-0.1-3.9-0.6-5.7-1.4C13.6,15.6,13.2,17.7,13.1,19.9z"/>
	<path class="st0" d="M15.2,7.9c0,0-0.1,0-0.1,0c-0.1,0-0.2,0.1-0.3,0.1c-0.3,0.1-0.5,0.3-0.8,0.4c-0.1,0.1-0.2,0.1-0.3,0.2
		c-0.3,0.2-0.5,0.3-0.8,0.5c-0.1,0.1-0.2,0.1-0.3,0.2c-0.3,0.2-0.5,0.4-0.8,0.6c0,0,0,0-0.1,0.1c0.5,0.4,1,0.7,1.5,1.1
		C13.8,9.8,14.4,8.8,15.2,7.9z"/>
	<path class="st0" d="M29.9,10C29.9,10,29.9,10,29.9,10c-0.3-0.3-0.6-0.5-0.8-0.6c-0.1-0.1-0.2-0.1-0.3-0.2
		c-0.3-0.2-0.5-0.3-0.8-0.5c-0.1-0.1-0.2-0.1-0.3-0.2c-0.3-0.1-0.5-0.3-0.8-0.4c-0.1,0-0.2-0.1-0.3-0.1c0,0-0.1,0-0.1,0
		c0.7,0.9,1.4,2,2,3.2C29,10.7,29.5,10.4,29.9,10z"/>
	<path class="st0" d="M11.7,31.7C11.7,31.7,11.8,31.7,11.7,31.7c0.3,0.3,0.6,0.5,0.8,0.6c0.1,0.1,0.2,0.1,0.3,0.2
		c0.2,0.2,0.5,0.3,0.8,0.5c0.1,0.1,0.2,0.1,0.3,0.2c0.3,0.1,0.5,0.3,0.8,0.4c0.1,0.1,0.2,0.1,0.3,0.1c0,0,0.1,0,0.1,0
		c-0.7-0.9-1.4-2-2-3.2C12.7,30.9,12.2,31.3,11.7,31.7z"/>
	<path class="st0" d="M12.5,12.8c-0.7-0.5-1.5-1-2.1-1.6c-2.1,2.3-3.5,5.3-3.7,8.6h4.6C11.4,17.3,11.8,14.9,12.5,12.8z"/>
	<path class="st0" d="M11.3,21.8H6.7c0.2,3.3,1.6,6.3,3.7,8.6c0.7-0.6,1.4-1.1,2.1-1.6C11.8,26.8,11.4,24.4,11.3,21.8z"/>
	<path class="st0" d="M29.2,28.8c0.7,0.5,1.5,1,2.1,1.6c2.1-2.3,3.5-5.3,3.7-8.6h-4.6C30.3,24.4,29.9,26.8,29.2,28.8z"/>
	<path class="st0" d="M21.8,6.8v6.5c1.8-0.1,3.5-0.5,5-1.3C25.6,9.2,23.8,7.2,21.8,6.8z"/>
	<path class="st0" d="M26.5,33.8c0,0,0.1,0,0.1,0c0.1,0,0.2-0.1,0.3-0.1c0.3-0.1,0.5-0.3,0.8-0.4c0.1-0.1,0.2-0.1,0.3-0.2
		c0.3-0.2,0.5-0.3,0.8-0.5c0.1-0.1,0.2-0.1,0.3-0.2c0.3-0.2,0.5-0.4,0.7-0.6c0,0,0,0,0.1-0.1c-0.5-0.4-1-0.7-1.5-1.1
		C27.9,31.8,27.2,32.9,26.5,33.8z"/>
	<path class="st0" d="M20.8,0C9.3,0,0,9.3,0,20.8c0,11.5,9.3,20.8,20.8,20.8c11.5,0,20.8-9.3,20.8-20.8c0,0,0,0,0,0
		C41.7,9.3,32.3,0,20.8,0z M32.6,31.7L32.6,31.7L32,32.4c-0.1,0.1-0.2,0.2-0.3,0.3c0,0,0,0-0.1,0c-0.2,0.2-0.4,0.3-0.5,0.5
		c0,0,0,0,0,0c-1.4,1.2-3,2.1-4.7,2.7c0,0,0,0,0,0c-0.2,0.1-0.5,0.2-0.7,0.2c0,0,0,0-0.1,0c-0.2,0.1-0.4,0.1-0.7,0.2
		c0,0-0.1,0-0.1,0c-0.2,0.1-0.4,0.1-0.6,0.1c-0.1,0-0.1,0-0.2,0c-0.2,0-0.4,0.1-0.6,0.1c-0.1,0-0.1,0-0.2,0c-0.2,0-0.4,0-0.6,0.1
		c-0.1,0-0.2,0-0.2,0c-0.2,0-0.4,0-0.6,0c-0.1,0-0.2,0-0.2,0c-0.3,0-0.5,0-0.8,0c-0.3,0-0.5,0-0.8,0c-0.1,0-0.2,0-0.2,0
		c-0.2,0-0.4,0-0.6,0c-0.1,0-0.2,0-0.2,0c-0.2,0-0.4,0-0.6-0.1c-0.1,0-0.1,0-0.2,0c-0.2,0-0.4-0.1-0.6-0.1c-0.1,0-0.1,0-0.2,0
		c-0.2,0-0.4-0.1-0.6-0.1c0,0-0.1,0-0.1,0c-0.2-0.1-0.4-0.1-0.7-0.2c0,0,0,0-0.1,0c-0.2-0.1-0.5-0.2-0.7-0.2c0,0,0,0,0,0
		c-1.7-0.6-3.3-1.5-4.7-2.7c0,0,0,0,0,0c-0.2-0.2-0.4-0.3-0.6-0.5c0,0,0,0,0,0c-0.1-0.1-0.2-0.2-0.3-0.3L9,31.7l0,0
		C6.4,28.8,4.8,25,4.8,20.8S6.4,12.9,9,10l0,0l0.7-0.7C9.8,9.2,9.9,9.1,10,9c0,0,0,0,0.1,0c0.2-0.2,0.4-0.3,0.5-0.5c0,0,0,0,0,0
		C10.8,8.3,11,8.2,11.2,8c0,0,0,0,0,0c1.3-0.9,2.6-1.7,4.1-2.2c0,0,0,0,0,0c0.2-0.1,0.5-0.2,0.7-0.2c0,0,0,0,0.1,0
		c0.2-0.1,0.4-0.1,0.7-0.2c0,0,0.1,0,0.1,0c0.2-0.1,0.4-0.1,0.6-0.1c0.1,0,0.1,0,0.2,0c0.2,0,0.4-0.1,0.6-0.1c0.1,0,0.1,0,0.2,0
		c0.2,0,0.4,0,0.6-0.1c0.1,0,0.2,0,0.2,0c0.2,0,0.4,0,0.6,0c0.1,0,0.2,0,0.2,0c0.3,0,0.5,0,0.8,0c0.3,0,0.5,0,0.8,0
		c0.1,0,0.2,0,0.2,0c0.2,0,0.4,0,0.6,0c0.1,0,0.2,0,0.2,0c0.2,0,0.4,0,0.6,0.1c0.1,0,0.1,0,0.2,0c0.2,0,0.4,0.1,0.6,0.1
		c0.1,0,0.1,0,0.2,0c0.2,0,0.4,0.1,0.6,0.1c0,0,0.1,0,0.1,0c0.2,0.1,0.4,0.1,0.7,0.2c0,0,0,0,0.1,0c0.2,0.1,0.5,0.2,0.7,0.2
		c0,0,0,0,0,0c1.4,0.5,2.8,1.3,4.1,2.2c0,0,0,0,0,0c0.2,0.1,0.4,0.3,0.6,0.5c0,0,0,0,0,0c0.2,0.1,0.4,0.3,0.5,0.5c0,0,0,0,0.1,0.1
		c0.1,0.1,0.2,0.2,0.3,0.3l0.7,0.7l0,0c2.6,2.9,4.2,6.7,4.2,10.8C36.9,25,35.3,28.8,32.6,31.7z"/>
	<path class="st0" d="M29.2,12.8c0.7,2.1,1.1,4.5,1.2,7.1H35c-0.2-3.3-1.6-6.3-3.7-8.6C30.6,11.9,29.9,12.4,29.2,12.8z"/>
	<path class="st0" d="M21.8,28.4v6.5c2-0.5,3.8-2.4,5-5.2C25.2,29,23.5,28.5,21.8,28.4z"/>
	<path class="st0" d="M27.5,13.7c-1.8,0.8-3.7,1.3-5.7,1.4v4.8h6.8C28.4,17.7,28.1,15.6,27.5,13.7z"/>
	<path class="st0" d="M28.5,21.8h-6.8v4.8c2,0.1,3.9,0.6,5.7,1.4C28.1,26.1,28.4,24,28.5,21.8z"/>
</g>
</svg>
